<mxfile host="app.diagrams.net" modified="2021-12-10T04:54:40.964Z" agent="5.0 (X11; Linux x86_64) AppleWebKit/537.36 (KHTML, like Gecko) Chrome/92.0.4515.159 Safari/537.36" etag="psZMDZRod_V51mDv7ApZ" version="15.8.2" type="github">
  <diagram id="gNlS2oYJUi5O1-slZdYI" name="第 1 页">
    <mxGraphModel dx="1355" dy="685" grid="1" gridSize="10" guides="1" tooltips="1" connect="1" arrows="1" fold="1" page="1" pageScale="1" pageWidth="850" pageHeight="1100" math="0" shadow="0">
      <root>
        <mxCell id="0" />
        <mxCell id="1" parent="0" />
        <mxCell id="eCuo-hN4RlpcjMW48G7--20" value="" style="rounded=0;whiteSpace=wrap;html=1;fillColor=#dae8fc;labelPosition=right;verticalLabelPosition=top;align=left;verticalAlign=bottom;strokeColor=#6c8ebf;gradientColor=#ffffff;gradientDirection=south;" parent="1" vertex="1">
          <mxGeometry x="260" y="390" width="650" height="430" as="geometry" />
        </mxCell>
        <mxCell id="eCuo-hN4RlpcjMW48G7--12" value="&lt;b&gt;&lt;font style=&quot;font-size: 14px&quot;&gt;DJI-自研OTA云端&lt;/font&gt;&lt;/b&gt;" style="rounded=1;whiteSpace=wrap;html=1;fillColor=#fff2cc;strokeColor=#d6b656;gradientColor=#ffd966;" parent="1" vertex="1">
          <mxGeometry x="290" y="270" width="580" height="60" as="geometry" />
        </mxCell>
        <mxCell id="eCuo-hN4RlpcjMW48G7--21" value="" style="rounded=1;whiteSpace=wrap;html=1;fillColor=#f8cecc;strokeColor=#b85450;shadow=1;" parent="1" vertex="1">
          <mxGeometry x="290.06" y="410" width="190" height="380" as="geometry" />
        </mxCell>
        <mxCell id="eCuo-hN4RlpcjMW48G7--22" value="" style="rounded=1;whiteSpace=wrap;html=1;fillColor=#f8cecc;strokeColor=#b85450;shadow=1;" parent="1" vertex="1">
          <mxGeometry x="663.3800000000001" y="490" width="189.99" height="300" as="geometry" />
        </mxCell>
        <mxCell id="eCuo-hN4RlpcjMW48G7--24" value="" style="html=1;shadow=0;dashed=0;align=center;verticalAlign=middle;shape=mxgraph.arrows2.arrow;dy=0.6;dx=29;direction=south;notch=0;fontSize=17;fillColor=#d5e8d4;gradientDirection=south;strokeColor=#82b366;" parent="1" vertex="1">
          <mxGeometry x="370.09" y="620" width="29.94" height="75" as="geometry" />
        </mxCell>
        <mxCell id="eCuo-hN4RlpcjMW48G7--25" value="" style="html=1;shadow=0;dashed=0;align=center;verticalAlign=middle;shape=mxgraph.arrows2.arrow;dy=0.6;dx=40;direction=south;notch=0;fontSize=17;fillColor=#d5e8d4;gradientDirection=south;strokeColor=#82b366;" parent="1" vertex="1">
          <mxGeometry x="743.3699999999999" y="610" width="30" height="80" as="geometry" />
        </mxCell>
        <mxCell id="eCuo-hN4RlpcjMW48G7--26" value="&lt;br&gt;ASST升级代理" style="rounded=1;whiteSpace=wrap;html=1;shadow=0;fontSize=17;fillColor=#ffe6cc;gradientDirection=south;verticalAlign=top;strokeColor=#d79b00;align=center;horizontal=1;fontStyle=1" parent="1" vertex="1">
          <mxGeometry x="317.4" y="560" width="135.31" height="60" as="geometry" />
        </mxCell>
        <mxCell id="eCuo-hN4RlpcjMW48G7--27" value="CECU升级代理" style="rounded=1;whiteSpace=wrap;html=1;shadow=0;fontSize=17;fillColor=#ffe6cc;gradientDirection=south;verticalAlign=middle;strokeColor=#d79b00;align=center;horizontal=1;fontStyle=1" parent="1" vertex="1">
          <mxGeometry x="696.69" y="550" width="123.37" height="70" as="geometry" />
        </mxCell>
        <mxCell id="eCuo-hN4RlpcjMW48G7--30" value="&lt;font face=&quot;helvetica&quot;&gt;ASST&lt;/font&gt;" style="text;html=1;strokeColor=none;fillColor=none;align=center;verticalAlign=middle;whiteSpace=wrap;rounded=0;shadow=1;glass=0;sketch=0;fontSize=13;labelBackgroundColor=none;fontStyle=1" parent="1" vertex="1">
          <mxGeometry x="334.75" y="760" width="90.62" height="20" as="geometry" />
        </mxCell>
        <mxCell id="eCuo-hN4RlpcjMW48G7--31" value="刷写ASST&lt;br&gt;升级包" style="shape=dataStorage;whiteSpace=wrap;html=1;fixedSize=1;shadow=1;glass=0;labelBackgroundColor=none;sketch=0;fontSize=13;fillColor=#fff2cc;gradientDirection=south;align=center;verticalAlign=middle;strokeColor=#d6b656;" parent="1" vertex="1">
          <mxGeometry x="307.65" y="690" width="150" height="40" as="geometry" />
        </mxCell>
        <mxCell id="eCuo-hN4RlpcjMW48G7--32" value="刷写CECU升级包" style="shape=dataStorage;whiteSpace=wrap;html=1;fixedSize=1;shadow=1;glass=0;labelBackgroundColor=none;sketch=0;fontSize=13;fillColor=#fff2cc;gradientDirection=south;align=center;verticalAlign=middle;strokeColor=#d6b656;" parent="1" vertex="1">
          <mxGeometry x="686.19" y="690" width="144.38" height="50" as="geometry" />
        </mxCell>
        <mxCell id="eCuo-hN4RlpcjMW48G7--33" value="&lt;font face=&quot;helvetica&quot;&gt;CECU&lt;/font&gt;" style="text;html=1;strokeColor=none;fillColor=none;align=center;verticalAlign=middle;whiteSpace=wrap;rounded=0;shadow=1;glass=0;sketch=0;fontSize=13;labelBackgroundColor=none;fontStyle=1" parent="1" vertex="1">
          <mxGeometry x="713.0699999999999" y="760" width="90.62" height="20" as="geometry" />
        </mxCell>
        <mxCell id="eCuo-hN4RlpcjMW48G7--15" value="&lt;span style=&quot;font-size: 14px&quot;&gt;&lt;b&gt;DJI-OTA车端主控&lt;/b&gt;&lt;/span&gt;" style="rounded=1;whiteSpace=wrap;html=1;fillColor=#fff2cc;gradientColor=#ffd966;strokeColor=#d6b656;" parent="1" vertex="1">
          <mxGeometry x="320.06" y="440" width="130" height="70" as="geometry" />
        </mxCell>
        <mxCell id="eCuo-hN4RlpcjMW48G7--35" value="" style="html=1;shadow=0;dashed=0;align=center;verticalAlign=middle;shape=mxgraph.arrows2.bendArrow;dy=8.85;dx=40;notch=2.57;arrowHead=42.31;rounded=0;fontSize=14;fillColor=#d5e8d4;direction=south;strokeColor=#82b366;" parent="1" vertex="1">
          <mxGeometry x="450.06" y="470" width="329.94" height="80" as="geometry" />
        </mxCell>
        <mxCell id="eCuo-hN4RlpcjMW48G7--38" value="" style="html=1;shadow=0;dashed=0;align=center;verticalAlign=middle;shape=mxgraph.arrows2.arrow;dy=0.6;dx=25;direction=south;notch=0;fontSize=17;fillColor=#d5e8d4;gradientDirection=south;strokeColor=#82b366;" parent="1" vertex="1">
          <mxGeometry x="369.09000000000003" y="510" width="31.94" height="50" as="geometry" />
        </mxCell>
        <mxCell id="eCuo-hN4RlpcjMW48G7--39" value="" style="html=1;shadow=0;dashed=0;align=center;verticalAlign=middle;shape=mxgraph.arrows2.arrow;dy=0.52;dx=27;direction=south;notch=0;fontSize=17;fillColor=#d5e8d4;gradientDirection=south;strokeColor=#82b366;" parent="1" vertex="1">
          <mxGeometry x="360.06" y="330" width="50" height="110" as="geometry" />
        </mxCell>
        <mxCell id="LKEY6E24n65M9pt48yJW-12" style="edgeStyle=orthogonalEdgeStyle;rounded=0;orthogonalLoop=1;jettySize=auto;html=1;exitX=0.5;exitY=0;exitDx=0;exitDy=0;exitPerimeter=0;entryX=0.5;entryY=1;entryDx=0;entryDy=0;" edge="1" parent="1" source="LKEY6E24n65M9pt48yJW-7" target="LKEY6E24n65M9pt48yJW-9">
          <mxGeometry relative="1" as="geometry" />
        </mxCell>
        <mxCell id="LKEY6E24n65M9pt48yJW-7" value="User" style="shape=umlActor;verticalLabelPosition=bottom;verticalAlign=top;html=1;outlineConnect=0;" vertex="1" parent="1">
          <mxGeometry x="170" y="580" width="30" height="70" as="geometry" />
        </mxCell>
        <mxCell id="LKEY6E24n65M9pt48yJW-9" value="&lt;span style=&quot;font-size: 14px&quot;&gt;&lt;b&gt;车端浏览器UI&lt;/b&gt;&lt;/span&gt;" style="rounded=1;whiteSpace=wrap;html=1;fillColor=#fff2cc;gradientColor=#ffd966;strokeColor=#d6b656;" vertex="1" parent="1">
          <mxGeometry x="120" y="440" width="130" height="70" as="geometry" />
        </mxCell>
        <mxCell id="LKEY6E24n65M9pt48yJW-14" value="" style="endArrow=classic;startArrow=classic;html=1;rounded=0;entryX=0;entryY=0.5;entryDx=0;entryDy=0;exitX=1;exitY=0.5;exitDx=0;exitDy=0;" edge="1" parent="1" source="LKEY6E24n65M9pt48yJW-9" target="eCuo-hN4RlpcjMW48G7--15">
          <mxGeometry width="50" height="50" relative="1" as="geometry">
            <mxPoint x="250" y="510" as="sourcePoint" />
            <mxPoint x="300" y="460" as="targetPoint" />
          </mxGeometry>
        </mxCell>
      </root>
    </mxGraphModel>
  </diagram>
</mxfile>
